<?xml version="1.0" standalone="no"?>
<!DOCTYPE svg PUBLIC "-//W3C//DTD SVG 20010904//EN"
 "http://www.w3.org/TR/2001/REC-SVG-20010904/DTD/svg10.dtd">
<svg version="1.0" xmlns="http://www.w3.org/2000/svg"
 width="999.000000pt" height="997.000000pt" viewBox="0 0 999.000000 997.000000"
 preserveAspectRatio="xMidYMid meet">
<metadata>
Created by potrace 1.16, written by Peter Selinger 2001-2019
</metadata>
<g transform="translate(0.000000,997.000000) scale(0.100000,-0.100000)"
fill="#000000" stroke="none">
<path d="M2475 8139 c-84 -13 -200 -53 -275 -97 -80 -46 -223 -187 -269 -265
-48 -82 -88 -201 -101 -299 -8 -58 -10 -825 -8 -2563 3 -2304 5 -2484 21
-2542 73 -266 273 -473 537 -555 l75 -23 2505 -3 c2098 -2 2518 0 2585 12 317
54 567 304 621 621 12 67 14 487 12 2585 l-3 2505 -23 73 c-83 268 -286 466
-555 539 -58 16 -236 18 -2562 19 -1392 1 -2526 -2 -2560 -7z m5077 -150 c29
-6 91 -29 138 -51 170 -81 302 -255 335 -443 21 -119 21 -4930 0 -5049 -41
-229 -206 -411 -445 -492 -53 -18 -146 -19 -2535 -22 -2145 -2 -2491 0 -2565
12 -192 34 -365 163 -448 336 -22 47 -45 109 -51 138 -8 37 -11 788 -11 2555
0 2775 -6 2548 67 2697 50 102 159 211 263 263 144 71 -79 66 2692 66 1773 1
2523 -2 2560 -10z"/>
<path d="M4863 6755 c-148 -32 -308 -151 -383 -284 -34 -61 -43 -74 -115 -178
-77 -112 -113 -273 -96 -433 5 -47 12 -97 16 -111 5 -20 -3 -40 -34 -89 -79
-122 -98 -200 -105 -422 l-5 -157 -84 -83 c-98 -96 -173 -207 -216 -316 -52
-136 -54 -166 -49 -607 5 -422 7 -435 49 -435 47 0 47 2 41 432 -4 353 -3 414
12 479 57 255 276 486 549 580 85 29 227 53 238 41 3 -4 23 -72 43 -152 21
-79 43 -148 49 -152 32 -20 54 -6 112 72 33 43 63 79 68 80 4 0 7 -49 7 -110
l0 -110 -394 0 c-391 0 -393 0 -426 -22 -18 -13 -43 -36 -54 -51 -21 -28 -21
-36 -21 -580 l0 -552 23 -33 c13 -18 41 -41 63 -52 38 -20 57 -20 863 -18 815
3 825 3 852 24 15 11 37 33 48 48 21 27 21 40 24 569 3 615 5 597 -73 643
l-42 24 -386 0 -387 0 0 113 1 112 22 -30 c89 -120 131 -155 159 -127 5 5 22
60 39 123 16 63 34 131 40 151 l10 38 47 -6 c219 -27 398 -118 549 -278 64
-67 93 -108 128 -179 78 -159 78 -158 83 -632 2 -269 7 -424 14 -432 17 -21
46 -15 64 12 14 21 15 70 12 437 -4 381 -6 419 -26 489 -39 143 -111 266 -227
389 -50 52 -74 86 -79 110 -4 19 -1 99 5 177 19 210 -5 331 -112 561 -27 59
-39 99 -39 131 -1 118 -52 263 -130 366 -25 33 -63 92 -84 130 -49 88 -160
199 -243 243 -125 66 -281 87 -420 57z m239 -86 c225 -47 408 -268 408 -493 0
-63 -11 -136 -21 -136 -5 0 -9 7 -9 16 0 32 -61 143 -106 193 -36 40 -69 62
-143 97 -53 25 -127 61 -166 79 -38 19 -94 55 -122 80 -79 69 -84 66 -169 -96
-40 -75 -94 -170 -121 -210 -63 -92 -138 -177 -149 -166 -5 5 -10 55 -12 112
-4 85 0 117 17 173 40 134 135 243 265 308 106 52 216 66 328 43z m-150 -282
c36 -24 100 -59 144 -77 43 -18 99 -43 124 -55 49 -25 119 -94 144 -143 21
-40 65 -194 68 -235 4 -62 -89 -214 -187 -305 -161 -151 -312 -156 -482 -14
-71 59 -157 182 -203 290 l-31 72 69 68 c76 75 170 211 240 349 26 51 48 93
48 93 1 0 30 -20 66 -43z m695 -433 c10 -167 -42 -386 -144 -606 -35 -74 -50
-97 -62 -94 -9 3 -39 7 -67 11 l-51 7 -7 60 c-13 125 -8 172 19 198 37 34 117
155 158 236 48 95 84 211 99 313 l12 86 19 -60 c10 -33 21 -101 24 -151z
m-1211 -25 c47 -149 120 -280 216 -386 42 -46 48 -58 44 -86 -3 -18 -8 -66
-11 -108 l-6 -77 -37 -6 c-81 -13 -79 -15 -132 97 -57 122 -113 282 -135 392
-27 129 -21 305 12 385 4 8 10 -17 14 -56 5 -38 20 -108 35 -155z m1328 -299
c48 -146 53 -214 30 -446 l-6 -61 -57 31 c-31 17 -83 40 -116 52 -33 13 -59
28 -57 34 1 6 22 57 46 113 46 108 99 266 111 330 9 49 18 40 49 -53z m-1409
-125 c15 -44 47 -122 71 -174 24 -52 43 -95 42 -96 -2 -1 -32 -12 -68 -25 -36
-12 -86 -33 -112 -46 -26 -13 -49 -24 -50 -24 -8 0 3 242 13 290 13 65 59 174
69 163 4 -4 19 -44 35 -88z m585 -135 c80 -15 161 2 273 58 4 2 7 -14 7 -35
-1 -37 -2 -39 -105 -103 -58 -36 -110 -65 -117 -64 -7 1 -59 31 -115 67 -98
63 -103 68 -103 101 l0 35 53 -24 c30 -14 77 -29 107 -35z m-11 -216 c2 -2
-20 -35 -49 -74 -29 -39 -55 -69 -57 -66 -11 11 -61 218 -57 231 5 11 25 1 82
-37 43 -28 79 -52 81 -54z m311 84 c0 -18 -52 -212 -59 -220 -4 -4 -31 24 -61
63 -43 57 -51 73 -39 80 8 4 41 26 74 48 63 41 85 49 85 29z m590 -548 c19
-19 20 -33 20 -542 l0 -522 -22 -23 -21 -23 -804 0 -804 0 -24 25 -25 24 0
521 c0 507 1 521 20 540 20 20 33 20 830 20 797 0 810 0 830 -20z"/>
<path d="M4896 5734 c-9 -8 -16 -22 -16 -29 0 -34 30 -45 119 -45 92 0 111 8
111 45 0 37 -19 45 -111 45 -66 0 -91 -4 -103 -16z"/>
<path d="M5024 4307 c-21 -55 -110 -368 -106 -372 3 -3 15 -5 27 -5 22 0 26
10 131 373 4 13 -1 17 -21 17 -14 0 -28 -6 -31 -13z"/>
<path d="M4743 4179 c-106 -50 -123 -62 -123 -82 0 -21 16 -31 121 -80 67 -32
125 -57 130 -57 5 0 9 11 9 25 0 22 -10 30 -67 55 -38 17 -81 36 -98 44 l-30
13 55 24 c100 43 135 64 138 83 2 10 0 22 -5 26 -4 4 -63 -19 -130 -51z"/>
<path d="M5110 4211 c0 -25 8 -31 88 -66 48 -21 90 -41 95 -45 4 -4 -34 -24
-85 -46 -82 -35 -93 -43 -96 -67 -2 -15 0 -27 4 -27 4 0 63 25 131 56 108 50
123 60 123 81 0 25 -10 30 -207 119 l-53 23 0 -28z"/>
<path d="M3915 3410 c-42 -46 34 -201 113 -231 13 -5 449 -9 974 -9 1053 0
990 -4 1043 66 29 37 55 104 55 140 0 57 65 54 -1099 54 -1048 0 -1068 0
-1086 -20z m2074 -92 c-6 -13 -18 -31 -27 -40 -14 -17 -72 -18 -954 -18 -625
0 -946 3 -959 10 -10 6 -26 24 -34 40 l-16 30 1001 0 1001 0 -12 -22z"/>
</g>
</svg>
