<svg xmlns="http://www.w3.org/2000/svg" width="1400" height="856" viewBox="0 0 1400 856">
  <defs>
    <style>
      .cls-1 {
        fill-rule: evenodd;
      }
    </style>
  </defs>
  <path id="Color_Fill_1" data-name="Color Fill 1" class="cls-1" d="M699,25l350,201V513c0,25.122,5.5,102.256-2,119L785,782c-18.562,11.024-67.091,46.163-87,49L350,629V343c0-24.955-5.451-101.361,2-118Zm-4,9L360,228l1,2,166,95,170-99V84C697,72.025,701.362,41.3,695,34Zm8,0V227l171,98,166-96Zm-4,198L530,331V527l170,98,170-99V388c0-17.506,4.1-46.434-2-60Zm-343,2V623l168-97V388c0-17.506,4.1-46.434-2-60Zm685,0L876,331V527l167,96V334C1043,317.929,1046.95,240.882,1041,234ZM526,532L360,628l1,2L697,823V687c0-17.252,4-45.661-2-59Zm346,0L703,631V823l337-194Z"/>
</svg>
